<?xml version="1.0" standalone="no"?>
<!DOCTYPE svg PUBLIC "-//W3C//DTD SVG 20010904//EN"
 "http://www.w3.org/TR/2001/REC-SVG-20010904/DTD/svg10.dtd">
<svg version="1.0" xmlns="http://www.w3.org/2000/svg"
 width="316.000000pt" height="316.000000pt" viewBox="0 0 316.000000 316.000000"
 preserveAspectRatio="xMidYMid meet">
<metadata>
Created by potrace 1.14, written by Peter Selinger 2001-2017
</metadata>
<g transform="translate(0.000000,316.000000) scale(0.100000,-0.100000)"
fill="#000000" stroke="none">
<path d="M908 3105 c-3 -4 -12 -8 -20 -9 -22 -5 -51 -19 -71 -35 -50 -41 -163
-161 -152 -161 3 0 -8 -19 -25 -41 -16 -23 -27 -45 -24 -50 3 -5 1 -9 -5 -9
-5 0 -15 -16 -21 -35 -6 -19 -16 -35 -22 -35 -6 0 -8 -7 -5 -15 4 -8 2 -17 -2
-19 -5 -3 -19 -34 -32 -68 -13 -35 -29 -74 -36 -87 -6 -14 -10 -28 -7 -33 3
-4 2 -8 -3 -8 -4 0 -8 -11 -8 -25 0 -20 5 -25 27 -25 14 0 28 3 30 8 2 4 24
18 50 30 50 26 156 123 203 187 16 22 38 47 47 56 10 9 18 22 18 30 0 18 38
-24 42 -47 2 -11 6 -21 10 -24 4 -3 9 -67 11 -142 3 -75 8 -141 11 -147 4 -6
4 -11 1 -11 -6 0 4 -13 35 -47 10 -12 13 -37 11 -102 -4 -141 -8 -189 -16
-202 -6 -8 -4 -10 4 -4 10 6 11 3 3 -11 -6 -11 -10 -22 -11 -27 -2 -23 -35
-132 -67 -227 -3 -8 -6 -17 -7 -20 -4 -18 -25 -26 -48 -20 -18 5 -32 3 -47 -9
-26 -19 -37 -62 -19 -73 9 -6 9 -8 -1 -8 -17 0 18 -49 36 -50 6 0 12 -5 12
-11 0 -5 4 -8 9 -4 5 3 12 1 15 -4 7 -10 -13 -9 -30 2 -6 3 -14 4 -17 0 -4 -3
-33 -6 -64 -7 -61 -1 -66 -7 -46 -56 3 -8 7 -21 9 -29 7 -33 96 -115 151 -138
48 -20 55 -35 36 -81 -22 -53 -97 -77 -178 -57 -16 4 -38 7 -47 7 -10 0 -18 2
-18 6 0 6 -32 7 -72 3 -14 -2 -8 -29 13 -65 24 -42 86 -106 94 -98 3 3 5 -2 5
-12 0 -9 4 -15 9 -11 5 3 12 1 16 -5 3 -5 1 -10 -5 -10 -17 0 12 -26 38 -34
12 -4 34 -9 50 -10 23 -3 27 -7 24 -32 -2 -16 -9 -32 -15 -36 -7 -4 -9 -8 -5
-8 4 0 -1 -19 -12 -42 -10 -23 -16 -46 -14 -50 3 -4 0 -8 -6 -8 -6 0 -9 -4 -6
-9 3 -5 -1 -14 -8 -20 -8 -7 -17 -30 -21 -52 -4 -21 -11 -39 -16 -39 -4 0 -6
-7 -3 -15 4 -8 2 -15 -3 -15 -5 0 -10 -6 -10 -12 -1 -30 -13 -71 -24 -84 -6
-8 -9 -17 -5 -21 7 -8 -21 -55 -41 -66 -7 -4 -13 -15 -13 -22 0 -19 -12 -21
-65 -12 -59 10 -151 52 -177 81 -10 10 -18 17 -19 15 0 -2 -2 -12 -4 -21 -2
-10 2 -18 8 -18 8 0 8 -3 2 -8 -14 -10 -17 -32 -4 -32 8 0 8 -4 0 -14 -8 -10
-9 -16 -1 -21 5 -3 10 -15 10 -26 0 -11 7 -19 16 -19 8 0 13 -4 10 -9 -7 -11
81 -91 100 -91 8 0 14 -4 14 -10 0 -5 19 -15 43 -22 23 -6 44 -14 47 -18 6 -6
28 -8 132 -11 42 -2 75 -6 72 -10 -5 -9 37 -6 53 4 6 4 14 3 18 -2 3 -6 16 -6
33 -1 15 5 43 11 62 13 19 3 43 8 53 12 9 4 24 5 32 2 8 -4 17 -2 20 3 3 5 12
7 20 3 9 -3 21 -1 28 4 18 14 68 15 84 1 9 -7 17 -8 21 -2 8 11 32 11 50 1 6
-5 12 -4 12 1 0 5 7 9 15 9 8 0 15 -3 15 -7 0 -6 35 -6 50 0 14 6 36 4 47 -3
6 -4 14 -3 18 4 6 8 10 7 16 -2 7 -12 9 -12 9 0 0 11 3 11 15 1 8 -7 15 -8 15
-3 0 5 15 9 33 10 72 4 210 19 257 29 14 3 36 7 50 9 14 2 59 11 100 20 100
22 105 23 108 25 1 2 7 4 12 5 6 1 11 3 13 4 2 3 66 13 85 14 6 0 12 5 12 10
0 6 3 7 7 4 3 -4 13 -1 21 6 13 10 14 9 8 -1 -5 -9 -1 -15 13 -19 24 -6 24 -4
11 -39 -25 -64 21 -86 70 -33 28 31 74 43 89 23 3 -5 13 -11 21 -12 50 -12 60
-12 60 2 0 12 20 26 36 25 4 0 10 5 14 12 7 10 12 9 24 -2 35 -32 46 -39 46
-32 0 4 7 0 14 -10 9 -12 16 -14 21 -7 3 5 11 8 16 5 8 -6 11 2 8 21 0 4 5 11
13 15 9 6 10 9 1 9 -7 0 -10 7 -6 17 5 12 3 14 -8 8 -12 -8 -12 -6 0 9 11 13
12 19 3 25 -8 5 -6 12 8 24 11 9 20 29 20 43 0 14 9 38 20 54 11 15 17 30 13
34 -3 3 -2 6 4 6 5 0 11 6 12 13 1 6 3 26 5 42 3 17 5 30 6 30 7 0 3 76 -5 79
-5 3 -4 5 3 5 10 1 10 6 2 21 -6 11 -8 20 -4 20 3 0 1 6 -5 14 -6 7 -12 25
-13 39 -1 14 -5 24 -9 21 -4 -2 -12 9 -18 24 -7 15 -25 39 -42 52 -17 14 -44
37 -60 52 -32 31 -45 34 -53 16 -2 -7 -4 -2 -3 11 1 16 -4 25 -16 26 -9 2 -15
-1 -11 -6 3 -5 10 -6 16 -3 7 4 8 2 4 -4 -5 -9 -12 -9 -26 0 -10 7 -16 17 -12
23 3 5 -2 4 -11 -4 -11 -9 -17 -10 -17 -2 0 6 -5 11 -11 11 -5 0 -8 -3 -6 -8
3 -4 -8 -7 -23 -7 -16 -1 -26 3 -24 7 6 10 -10 11 -20 1 -12 -12 -36 -12 -37
0 0 7 -4 3 -9 -8 -7 -17 -9 -17 -9 -2 -1 21 -21 23 -21 2 0 -9 -6 -12 -17 -8
-11 4 -14 3 -9 -5 4 -7 1 -12 -9 -12 -11 0 -15 5 -11 16 3 9 2 12 -5 9 -6 -4
-8 -13 -5 -21 3 -8 -4 -19 -16 -25 -13 -7 -18 -7 -14 -1 3 6 1 14 -5 18 -7 4
-9 3 -6 -3 4 -6 -1 -19 -11 -30 -9 -10 -16 -17 -15 -15 1 2 -12 18 -28 34 -16
17 -29 37 -29 44 0 8 -4 14 -10 14 -5 0 -16 12 -23 27 -14 26 -13 28 22 53 28
21 42 44 65 104 27 71 38 135 29 161 -9 27 -81 13 -125 -24 -10 -8 -18 -11
-18 -7 0 5 -17 -2 -37 -14 -24 -14 -39 -18 -41 -11 -2 6 -8 9 -13 5 -5 -3 -10
4 -10 15 -5 82 -3 94 15 105 31 17 46 29 82 62 18 17 35 29 38 27 2 -2 10 9
17 26 7 16 17 27 21 25 7 -5 9 1 8 21 -1 3 6 13 15 22 9 8 14 22 11 30 -3 8
-1 11 4 8 9 -5 12 1 9 21 0 4 5 10 11 14 8 5 7 11 -4 22 -15 15 -129 20 -151
6 -6 -4 -17 -3 -24 1 -9 6 -5 12 13 25 32 21 55 64 49 95 -3 24 -36 64 -45 56
-2 -3 -13 -6 -24 -8 -10 -2 -34 -11 -53 -19 -33 -15 -35 -15 -58 11 -22 22
-49 74 -57 106 -2 6 -9 24 -16 40 -7 17 -14 37 -16 45 -3 17 -9 30 -67 145
-25 50 -45 92 -45 95 -1 11 -14 46 -23 62 -5 10 -9 25 -9 33 0 36 -59 125
-146 221 -17 19 -37 47 -45 62 -8 15 -20 31 -26 35 -7 4 -13 15 -13 22 0 8 -4
15 -10 15 -5 0 -10 5 -10 11 0 11 -57 85 -97 127 -13 13 -23 27 -23 32 0 6 -5
10 -11 10 -7 0 -19 8 -28 18 -21 24 -91 76 -91 68 0 -3 -9 3 -20 14 -12 12
-25 18 -30 15 -5 -3 -12 0 -15 5 -14 23 -141 51 -157 35z"/>
<path d="M2546 1122 c-7 -12 10 -35 22 -28 6 4 8 -2 5 -14 -7 -27 -23 -36 -24
-13 0 10 -3 13 -5 6 -3 -7 -13 -10 -22 -7 -12 4 -11 2 3 -7 31 -20 45 -36 37
-44 -4 -5 0 -4 8 1 15 9 20 10 41 13 8 1 7 7 -2 18 -8 10 -9 14 -2 10 7 -5 11
-1 10 11 -1 20 -47 60 -47 42 0 -6 -5 -8 -10 -5 -6 4 -8 11 -5 16 4 5 4 9 1 9
-3 0 -7 -4 -10 -8z m54 -42 c0 -5 -2 -10 -4 -10 -3 0 -8 5 -11 10 -3 6 -1 10
4 10 6 0 11 -4 11 -10z m-18 -27 c-6 -2 -9 -10 -6 -15 4 -7 2 -8 -5 -4 -13 9
-5 26 12 25 9 0 8 -2 -1 -6z"/>
<path d="M2396 1102 c-3 -4 4 -9 15 -9 23 -2 25 3 4 10 -8 4 -16 3 -19 -1z"/>
<path d="M2436 1073 c-6 -14 -5 -15 5 -6 7 7 10 15 7 18 -3 3 -9 -2 -12 -12z"/>
<path d="M2184 1056 c-3 -8 -3 -20 1 -26 3 -5 1 -10 -4 -10 -6 0 -11 7 -11 15
0 8 -4 15 -8 15 -5 0 -9 -7 -9 -15 0 -8 4 -16 9 -16 24 -5 33 -3 33 6 0 6 4
15 8 22 4 6 3 14 -3 18 -6 3 -13 -1 -16 -9z"/>
</g>
</svg>
